<svg width="25" height="24" viewBox="0 0 25 24" fill="none" xmlns="http://www.w3.org/2000/svg">
<g clip-path="url(#clip0_2687_11486)">
<path d="M9.5 22C10.0523 22 10.5 21.5523 10.5 21C10.5 20.4477 10.0523 20 9.5 20C8.94772 20 8.5 20.4477 8.5 21C8.5 21.5523 8.94772 22 9.5 22Z" stroke="#F5F5F5" stroke-width="2" stroke-linecap="round" stroke-linejoin="round"/>
<path d="M19.5 22C20.0523 22 20.5 21.5523 20.5 21C20.5 20.4477 20.0523 20 19.5 20C18.9477 20 18.5 20.4477 18.5 21C18.5 21.5523 18.9477 22 19.5 22Z" stroke="#F5F5F5" stroke-width="2" stroke-linecap="round" stroke-linejoin="round"/>
<path d="M1.5 2H5.31818L7.87636 14.497C7.96365 14.9267 8.20273 15.3127 8.55175 15.5874C8.90077 15.8621 9.33748 16.0081 9.78545 15.9997H19.0636C19.5116 16.0081 19.9483 15.8621 20.2973 15.5874C20.6464 15.3127 20.8854 14.9267 20.9727 14.497L22.5 6.66655H6.27273" stroke="#F5F5F5" stroke-width="2" stroke-linecap="round" stroke-linejoin="round"/>
</g>
<defs>
<clipPath id="clip0_2687_11486">
<rect width="24" height="24" fill="white" transform="translate(0.5)"/>
</clipPath>
</defs>
</svg>
